<svg preserveAspectRatio="none" overflow="visible" style="display: block;" width="18" height="18" viewBox="0 0 18 18" fill="none" xmlns="http://www.w3.org/2000/svg">
<g id="Sign In">
<rect id="Rounded Rectangle" x="5.25" y="1.5" width="10.5" height="15" rx="2.25" fill="white" fill-opacity="0.16"/>
<path id="Union" d="M4.68752 12C4.68752 11.6893 4.93936 11.4375 5.25002 11.4375C5.56068 11.4375 5.81252 11.6893 5.81252 12L5.81252 12.375L5.81936 13.5273C5.82629 13.8539 5.84035 14.1289 5.86721 14.3672C5.91968 14.8323 6.01638 15.0886 6.16116 15.2773C6.25093 15.3943 6.35568 15.4991 6.47268 15.5888C6.66136 15.7336 6.91771 15.8303 7.38284 15.8828C7.85955 15.9365 8.48235 15.9375 9.37502 15.9375L11.25 15.9375C12.3263 15.9375 13.0771 15.9364 13.6436 15.8603C14.1939 15.7863 14.4858 15.6509 14.6934 15.4433C14.901 15.2358 15.0364 14.9439 15.1104 14.3935C15.1865 13.8271 15.1875 13.0763 15.1875 12L15.1875 5.99997C15.1875 4.92365 15.1865 4.17289 15.1104 3.60642C15.0364 3.05609 14.901 2.76419 14.6934 2.55661C14.4858 2.34904 14.1939 2.21361 13.6436 2.13962C13.0771 2.06351 12.3263 2.06247 11.25 2.06247L9.37502 2.06247C8.48235 2.06247 7.85954 2.06342 7.38283 2.11716C6.91771 2.16963 6.66136 2.26633 6.47268 2.41111C6.35568 2.50088 6.25093 2.60563 6.16116 2.72263C6.01638 2.91131 5.91968 3.16766 5.86721 3.63279C5.81347 4.10949 5.81252 4.7323 5.81252 5.62497L5.81252 5.99997C5.81252 6.31063 5.56068 6.56247 5.25002 6.56247C4.93936 6.56247 4.68752 6.31063 4.68752 5.99997L4.68752 5.62497C4.68752 4.75847 4.68655 4.06117 4.74905 3.50681C4.81282 2.94133 4.94861 2.45515 5.26858 2.03806C5.4182 1.84306 5.59311 1.66815 5.78811 1.51853C6.2052 1.19856 6.69138 1.06277 7.25686 0.998996C7.81122 0.936499 8.50851 0.937473 9.37502 0.937473L11.25 0.937473C12.2948 0.937473 13.1351 0.9358 13.794 1.02439C14.469 1.11515 15.0369 1.31027 15.4883 1.76169C15.9397 2.21311 16.1348 2.78098 16.2256 3.45603C16.3142 4.11493 16.3125 4.95521 16.3125 5.99997L16.3125 12C16.3125 13.0447 16.3142 13.885 16.2256 14.5439C16.1348 15.219 15.9397 15.7868 15.4883 16.2383C15.0369 16.6897 14.469 16.8848 13.794 16.9756C13.1351 17.0641 12.2948 17.0625 11.25 17.0625L9.37502 17.0625C8.50851 17.0625 7.81123 17.0634 7.25686 17.0009C6.69138 16.9372 6.2052 16.8014 5.78811 16.4814C5.59311 16.3318 5.4182 16.1569 5.26858 15.9619C4.94861 15.5448 4.81283 15.0586 4.74905 14.4931C4.68655 13.9388 4.68752 13.2415 4.68752 12.375L4.68752 12ZM1.68752 8.99997C1.68756 8.68934 1.93938 8.43747 2.25002 8.43747L11.3926 8.43747L9.35256 6.39743C9.13289 6.17776 9.13289 5.82218 9.35256 5.60251C9.57224 5.38291 9.92783 5.38286 10.1475 5.60251L13.1475 8.60251C13.3671 8.82216 13.3671 9.17776 13.1475 9.39743L10.1475 12.3974C9.92781 12.6171 9.57223 12.6171 9.35256 12.3974C9.13289 12.1778 9.13289 11.8222 9.35256 11.6025L11.3926 9.56247L2.25002 9.56247C1.93936 9.56247 1.68752 9.31063 1.68752 8.99997Z" fill="white"/>
</g>
</svg>
